<svg width="35" height="56" viewBox="0 0 35 56" fill="none" xmlns="http://www.w3.org/2000/svg">
<path d="M2.275 0C1.67163 0 1.09298 0.235999 0.666333 0.656081C0.239688 1.07616 0 1.64592 0 2.24V53.44C0 54.0341 0.239688 54.6038 0.666333 55.0239C1.09298 55.444 1.67163 55.68 2.275 55.68C2.87837 55.68 3.45702 55.444 3.88367 55.0239C4.31031 54.6038 4.55 54.0341 4.55 53.44V30.08H32.5C33.1034 30.08 33.682 29.844 34.1087 29.4239C34.5353 29.0038 34.775 28.4341 34.775 27.84V2.24C34.775 1.64592 34.5353 1.07616 34.1087 0.656081C33.682 0.235999 33.1034 0 32.5 0H2.6C2.54491 0.0004106 2.48985 0.00254501 2.4349 0.0064C2.38168 0.0026517 2.32835 0.000517353 2.275 0ZM11.245 4.48H17.615V9.2352H23.985V4.48H30.225V9.2352H23.985V15.5066H30.225V21.7786H23.985V25.6H17.615V21.7792H11.245V25.6H4.875V21.7792H11.245V15.5066H4.875V9.23456H11.245V4.48ZM11.245 9.23456V15.5066H17.615V9.2352L11.245 9.23456ZM17.615 15.5066V21.7792L23.985 21.7786V15.5066H17.615Z" fill="#0051FF"/>
<path d="M4.55 29.58H4.05V30.08V53.44C4.05 53.899 3.8649 54.3407 3.53286 54.6676C3.20056 54.9948 2.74824 55.18 2.275 55.18C1.80176 55.18 1.34944 54.9948 1.01714 54.6676C0.685095 54.3407 0.5 53.899 0.5 53.44V2.24C0.5 1.78105 0.685095 1.3393 1.01713 1.01236C1.34887 0.685728 1.80023 0.500627 2.2726 0.500002C2.31503 0.500462 2.35744 0.502183 2.39977 0.505165L2.43483 0.507634L2.46989 0.505174C2.51385 0.50209 2.55789 0.500365 2.60196 0.5H32.5C32.9732 0.5 33.4256 0.685175 33.7579 1.01236C34.0899 1.33929 34.275 1.78105 34.275 2.24V27.84C34.275 28.299 34.0899 28.7407 33.7579 29.0676C33.4256 29.3948 32.9732 29.58 32.5 29.58H4.55ZM11.245 3.98H10.745V4.48V8.73451V8.73456H4.875H4.375V9.23456V15.5066V16.0066H4.875H10.745V21.2792H4.875H4.375V21.7792V25.6V26.1H4.875H11.245H11.745V25.6V22.2792H17.115V22.2793V25.6V26.1H17.615H23.985H24.485V25.6V22.2786H30.225H30.725V21.7786V15.5066V15.0066H30.225H24.485V9.7352H30.225H30.725V9.2352V4.48V3.98H30.225H23.985H23.485V4.48V8.7352H18.115V4.48V3.98H17.615H11.245ZM18.115 16.0066H23.485V21.2786V21.2786L18.115 21.2792V16.0066ZM11.745 15.0066V9.73461L17.115 9.73515V9.7352V15.0066H11.745Z" stroke="white" stroke-opacity="0.76"/>
</svg>
