<svg width="40" height="50" viewBox="0 0 40 50" fill="none" xmlns="http://www.w3.org/2000/svg">
<path d="M22.1538 22.2222H16.3077C14.0986 22.2222 12.3077 20.4314 12.3077 18.2222V15.1111C12.3077 12.902 14.0986 11.1111 16.3077 11.1111H22.1538C23.7859 11.1111 25.3512 11.6964 26.5053 12.7383C27.6593 13.7802 28.3077 15.1932 28.3077 16.6667C28.3077 18.1401 27.6593 19.5532 26.5053 20.595C25.3512 21.6369 23.7859 22.2222 22.1538 22.2222ZM21.5385 0H4C1.79086 0 0 1.79086 0 4V46C0 48.2091 1.79086 50 4 50H8.30769C10.5168 50 12.3077 48.2091 12.3077 46V37.3333C12.3077 35.1242 14.0986 33.3333 16.3077 33.3333H21.5385C26.4348 33.3333 31.1305 31.5774 34.5927 28.4518C38.055 25.3262 40 21.0869 40 16.6667C40 7.44444 31.7231 0 21.5385 0Z" fill="#324BEF"/>
</svg>
