<svg width="39" height="44" viewBox="0 0 39 44" fill="none" xmlns="http://www.w3.org/2000/svg">
<path d="M3.50652 31.8468C1.50254 32.9285 0.5 34.2132 0.5 35.6246C0.5 37.5755 2.24664 39.5105 5.65383 40.984C9.01736 42.4385 13.8204 43.3531 19.5 43.3531C25.1797 43.3531 29.9827 42.4387 33.3462 40.9842C36.7533 39.5108 38.5 37.5758 38.5 35.6246C38.5 34.2129 37.4974 32.9282 35.4936 31.8466C33.5667 30.8066 30.8261 30.0227 27.5569 29.5427L27.1568 30.2133C29.4558 30.5709 31.4242 31.088 32.8695 31.7236C33.6676 32.0745 34.3327 32.4729 34.8058 32.9215C35.2794 33.3707 35.6 33.9102 35.6 34.5277C35.6 35.391 34.9828 36.099 34.151 36.6522C33.3002 37.2181 32.102 37.7082 30.6663 38.1121C27.7879 38.9219 23.8402 39.4162 19.5 39.4162C15.1598 39.4162 11.2121 38.9219 8.33369 38.1121C6.89797 37.7082 5.69981 37.2181 4.84901 36.6522C4.01729 36.099 3.40009 35.3911 3.4 34.5279L3.50652 31.8468ZM3.50652 31.8468C5.43314 30.8068 8.17319 30.0227 11.4419 29.5424L11.8397 30.2173M3.50652 31.8468L11.8397 30.2173M11.8397 30.2173C9.53253 30.5761 7.56356 31.0938 6.12026 31.7293C5.32398 32.0799 4.66125 32.4777 4.19011 32.9255C3.71832 33.374 3.39983 33.9122 3.4 34.5277L11.8397 30.2173Z" fill="#0777F7" stroke="white"/>
<path d="M19 32.0834C18.6889 32.0834 18.4222 31.9861 18.2 31.7917C17.9778 31.5972 17.8111 31.342 17.7 31.0261C17.2778 29.6649 16.7444 28.3889 16.1 27.1979C15.4778 26.007 14.6 24.6094 13.4667 23.0052C12.3333 21.4011 11.4111 19.8698 10.7 18.4115C10.0111 16.9531 9.66667 15.191 9.66667 13.125C9.66667 10.2813 10.5667 7.87502 12.3667 5.90627C14.1889 3.91321 16.4 2.91669 19 2.91669C21.6 2.91669 23.8 3.91321 25.6 5.90627C27.4222 7.87502 28.3333 10.2813 28.3333 13.125C28.3333 15.3368 27.9445 17.184 27.1667 18.6667C26.4111 20.125 25.5333 21.5712 24.5333 23.0052C23.3333 24.7552 22.4222 26.2136 21.8 27.3802C21.2 28.5226 20.7 29.7379 20.3 31.0261C20.1889 31.3663 20.0111 31.6337 19.7667 31.8281C19.5445 31.9983 19.2889 32.0834 19 32.0834ZM19 16.7709C19.9333 16.7709 20.7222 16.4184 21.3667 15.7136C22.0111 15.0087 22.3333 14.1459 22.3333 13.125C22.3333 12.1042 22.0111 11.2413 21.3667 10.5365C20.7222 9.83162 19.9333 9.47919 19 9.47919C18.0667 9.47919 17.2778 9.83162 16.6333 10.5365C15.9889 11.2413 15.6667 12.1042 15.6667 13.125C15.6667 14.1459 15.9889 15.0087 16.6333 15.7136C17.2778 16.4184 18.0667 16.7709 19 16.7709Z" fill="#324BEF" stroke="white" stroke-width="2"/>
</svg>
